<svg viewBox="0 0 1040 1040" xmlns="http://www.w3.org/2000/svg">
  <style>
    path {
      fill: none;
      stroke: #29B831;
      stroke-width: 20;
      transform-origin: 520px 520px;
    }
  </style>

  <g>
    <!-- Hex 1: 0° -->
    <path transform="rotate(0 520 520) scale(1)" d="M505 28.2051C514.282 22.8462 525.718 22.8462 535 28.2051L928.013 255.111C937.295 260.47 943.013 270.374 943.013 281.092V734.904C943.013 745.622 937.295 755.526 928.013 760.885L535 987.791C525.863 993.066 514.639 993.149 505.437 988.038L505 987.791L111.987 760.885C102.705 755.526 96.9874 745.622 96.9873 734.904V281.092C96.9874 270.374 102.705 260.47 111.987 255.111L505 28.2051Z">
      <animateTransform attributeName="transform" additive="sum" type="scale"
        begin="0s" dur="2s" values="1;0.9;1" repeatCount="indefinite"/>
    </path>

    <!-- Hex 2: 15° -->
    <path transform="rotate(15 520 520) scale(0.93) translate(-130 160)" d="M505 28.2051C514.282 22.8462 525.718 22.8462 535 28.2051L928.013 255.111C937.295 260.47 943.013 270.374 943.013 281.092V734.904C943.013 745.622 937.295 755.526 928.013 760.885L535 987.791C525.863 993.066 514.639 993.149 505.437 988.038L505 987.791L111.987 760.885C102.705 755.526 96.9874 745.622 96.9873 734.904V281.092C96.9874 270.374 102.705 260.47 111.987 255.111L505 28.2051Z">
      <animateTransform attributeName="transform" additive="sum" type="scale"
        begin="0.2s" dur="2s" values="1;0.9;1" repeatCount="indefinite"/>
    </path>

    <!-- Hex 3: 30° -->
    <path transform="rotate(30 520 520) scale(0.86) translate(-235 380)" d="M505 28.2051C514.282 22.8462 525.718 22.8462 535 28.2051L928.013 255.111C937.295 260.47 943.013 270.374 943.013 281.092V734.904C943.013 745.622 937.295 755.526 928.013 760.885L535 987.791C525.863 993.066 514.639 993.149 505.437 988.038L505 987.791L111.987 760.885C102.705 755.526 96.9874 745.622 96.9873 734.904V281.092C96.9874 270.374 102.705 260.47 111.987 255.111L505 28.2051Z">
      <animateTransform attributeName="transform" additive="sum" type="scale"
        begin="0.4s" dur="2s" values="1;0.9;1" repeatCount="indefinite"/>
    </path>

    <!-- Hex 4: 45° -->
    <path transform="rotate(45 520 520) scale(0.79) translate(-290 660)" d="M505 28.2051C514.282 22.8462 525.718 22.8462 535 28.2051L928.013 255.111C937.295 260.47 943.013 270.374 943.013 281.092V734.904C943.013 745.622 937.295 755.526 928.013 760.885L535 987.791C525.863 993.066 514.639 993.149 505.437 988.038L505 987.791L111.987 760.885C102.705 755.526 96.9874 745.622 96.9873 734.904V281.092C96.9874 270.374 102.705 260.47 111.987 255.111L505 28.2051Z">
      <animateTransform attributeName="transform" additive="sum" type="scale"
        begin="0.6s" dur="2s" values="1;0.9;1" repeatCount="indefinite"/>
    </path>

    <!-- Hex 5: 60° -->
    <path transform="rotate(60 520 520) scale(0.72) translate(-290 990)" d="M505 28.2051C514.282 22.8462 525.718 22.8462 535 28.2051L928.013 255.111C937.295 260.47 943.013 270.374 943.013 281.092V734.904C943.013 745.622 937.295 755.526 928.013 760.885L535 987.791C525.863 993.066 514.639 993.149 505.437 988.038L505 987.791L111.987 760.885C102.705 755.526 96.9874 745.622 96.9873 734.904V281.092C96.9874 270.374 102.705 260.47 111.987 255.111L505 28.2051Z">
      <animateTransform attributeName="transform" additive="sum" type="scale"
        begin="0.8s" dur="2s" values="1;0.9;1" repeatCount="indefinite"/>
    </path>

    <!-- Hex 6: 75° -->
    <path transform="rotate(75 520 520) scale(0.65) translate(-200 1375)" d="M505 28.2051C514.282 22.8462 525.718 22.8462 535 28.2051L928.013 255.111C937.295 260.47 943.013 270.374 943.013 281.092V734.904C943.013 745.622 937.295 755.526 928.013 760.885L535 987.791C525.863 993.066 514.639 993.149 505.437 988.038L505 987.791L111.987 760.885C102.705 755.526 96.9874 745.622 96.9873 734.904V281.092C96.9874 270.374 102.705 260.47 111.987 255.111L505 28.2051Z">
      <animateTransform attributeName="transform" additive="sum" type="scale"
        begin="1s" dur="2s" values="1;0.9;1" repeatCount="indefinite"/>
    </path>

    <!-- Hex 7: 90° -->
    <path transform="rotate(90 520 520) scale(0.58) translate(-25 1810)" d="M505 28.2051C514.282 22.8462 525.718 22.8462 535 28.2051L928.013 255.111C937.295 260.47 943.013 270.374 943.013 281.092V734.904C943.013 745.622 937.295 755.526 928.013 760.885L535 987.791C525.863 993.066 514.639 993.149 505.437 988.038L505 987.791L111.987 760.885C102.705 755.526 96.9874 745.622 96.9873 734.904V281.092C96.9874 270.374 102.705 260.47 111.987 255.111L505 28.2051Z">
      <animateTransform attributeName="transform" additive="sum" type="scale"
        begin="1.2s" dur="2s" values="1;0.9;1" repeatCount="indefinite"/>
    </path>
  </g>
</svg>
