<svg width="1048" height="1028" viewBox="0 0 1048 1028" fill="none" xmlns="http://www.w3.org/2000/svg">
<path d="M505 28.2051C514.282 22.8462 525.718 22.8462 535 28.2051L928.013 255.111C937.295 260.47 943.013 270.374 943.013 281.092V734.904C943.013 745.622 937.295 755.526 928.013 760.885L535 987.791C525.863 993.066 514.639 993.149 505.437 988.038L505 987.791L111.987 760.885C102.705 755.526 96.9874 745.622 96.9873 734.904V281.092C96.9874 270.374 102.705 260.47 111.987 255.111L505 28.2051Z" stroke="#29B831" stroke-width="20"/>
<path d="M466.181 62.814C474.839 56.8864 485.965 55.913 495.521 60.2471L888.189 238.347C898.052 242.821 904.739 252.264 905.683 263.053L942.429 683.061C943.373 693.851 938.428 704.312 929.491 710.431L573.715 954.01C565.192 959.845 554.277 960.88 544.824 956.777L544.375 956.577L151.707 778.478C141.843 774.004 135.156 764.56 134.212 753.771L97.4666 333.763C96.5227 322.973 101.468 312.513 110.405 306.394L466.181 62.814Z" stroke="#29B831" stroke-width="20"/>
<path d="M436.203 100.772C444.304 94.128 455.285 92.1919 465.17 95.6645L847.133 229.848C857.359 233.44 864.852 242.269 866.734 252.942L935.352 642.091C937.234 652.765 933.212 663.624 924.831 670.497L611.797 927.227C603.696 933.871 592.715 935.807 582.83 932.335L200.868 798.151C190.642 794.559 183.149 785.73 181.267 775.057L112.649 385.908C110.797 375.401 114.664 364.714 122.78 357.826L123.17 357.502L436.203 100.772Z" stroke="#29B831" stroke-width="20"/>
<path d="M405.034 141.589C412.49 134.363 423.152 131.506 433.222 134.036L800.768 226.372C811.326 229.024 819.619 237.188 822.436 247.703L917.2 601.364C920.017 611.879 916.917 623.096 909.1 630.672L636.963 894.409C629.624 901.522 619.177 904.402 609.248 902.077L608.776 901.962L241.23 809.627C230.672 806.975 222.379 798.811 219.562 788.296L124.798 434.635C121.981 424.12 125.081 412.903 132.898 405.327L405.034 141.589Z" stroke="#29B831" stroke-width="20"/>
<path d="M383.85 177.202C390.569 169.375 400.828 165.556 411.009 167.064L411.494 167.14L760.68 224.695C771.374 226.458 780.285 233.852 783.992 244.036L902.072 568.459C905.721 578.485 903.768 589.68 896.973 597.872L896.646 598.259L666.15 866.802C659.432 874.629 649.172 878.447 638.991 876.939L638.507 876.864L289.32 819.308C278.627 817.545 269.716 810.152 266.009 799.968L147.928 475.544C144.28 465.519 146.232 454.324 153.027 446.132L153.355 445.745L383.85 177.202Z" stroke="#29B831" stroke-width="20"/>
<path d="M368.385 212.699C374.481 204.243 384.529 199.558 394.924 200.323L725.517 224.671C736.353 225.469 745.911 232.064 750.503 241.911L886.32 533.171C890.912 543.018 889.82 554.579 883.466 563.393L689.616 832.292C683.52 840.747 673.473 845.433 663.077 844.667L332.484 820.32C321.648 819.522 312.09 812.927 307.498 803.08L171.682 511.82C167.09 501.973 168.181 490.412 174.535 481.598L368.385 212.699Z" stroke="#29B831" stroke-width="20"/>
<path d="M354.536 246.306C359.784 237.533 369.131 232.047 379.326 231.723L379.813 231.712L692.938 226.836C703.821 226.667 713.944 232.406 719.386 241.833L870.486 503.546C875.929 512.973 875.838 524.609 870.25 533.949L709.465 802.686C704.133 811.597 694.571 817.118 684.187 817.279L371.063 822.155C360.179 822.324 350.057 816.585 344.615 807.158L193.515 545.445C188.157 536.166 188.161 524.746 193.493 515.481L193.751 515.042L354.536 246.306Z" stroke="#29B831" stroke-width="20"/>
</svg>
